# xmcd
#
# Track frame offsets:
# 150
# 18920
# 38573
# 56475
# 70494
# 83594
# 103251
# 121760
# 132346
# 143182
# 156973
# 172050
# 188674
# 217181
# 230782
# 251713
# 270406
# 289877
# 302501
# 321745
# 332527
# 345174
#
# Disc length: 4760 seconds
#
# Revision: 1
# Processed by: cddbd v1.5.1PL2 Copyright (c) Steve Scherf et al.
# Submitted via: CedeCatalogueitor 2.6.0.6 http://personales.ya.com/cdcatalogueitor
#
DISCID=47129616
DTITLE=VARIOS - RESIDENCE 1
DYEAR=2006
DGENRE=
TTITLE0=AGUARDIENTE SWING - Les Yeux Noirs (trad.)
TTITLE1=BASIN STREET CAFÉ - It Might Rain 
TTITLE2=BETO STOCKER - Los Supercerditos
TTITLE3=CANAL BLUES - Diles Quién Soy
TTITLE4=CATFISH LOUIS - How Long, How Long
TTITLE5=DAVE LYONS and STEVE BILSBOROUGH - Different Times
TTITLE6=DOCTOR BLUES BAND - Blood Wine 
TTITLE7=FELIX SLIM - Sweet Mary Jane (trad.)
TTITLE8=IGELAREN TRIKIMAILUA - Reelska (a Son For Dems)
TTITLE9=JB HEININK - It Hurts Me Too (trad.)
TTITLE10=JIRA BIRAKA - Sta. Kattalinako Muturra 
TTITLE11=JOSÉ LUIS PARDO - Dame Tu Amor 
TTITLE12=LOS FASTUOSOS DE LA RIBERA - Te Lo Has Merecido
TTITLE13=LOS MUELLES - Monday
TTITLE14=MAC FECK - Feck (trad.)
TTITLE15=NOEL LENAGHAN - The Pride Of The Springfield Road (trad.)
TTITLE16=PHANTOM CLUB - Phantomatic 
TTITLE17=THE REVERENDOS - My Tie
TTITLE18=TRAVELLIN'S BROTHERS - I'm Gonna Love You
TTITLE19=VLADI OLMOS and DAVID GARCÍA - A Pelo
TTITLE20=LA WEST - Carolina In The Pines (trad.)
TTITLE21=YELLOW DOG BLUES BAND - Agente 61
EXTD=
EXTT0=
EXTT1=
EXTT2=
EXTT3=
EXTT4=
EXTT5=
EXTT6=
EXTT7=
EXTT8=
EXTT9=
EXTT10=
EXTT11=
EXTT12=
EXTT13=
EXTT14=
EXTT15=
EXTT16=
EXTT17=
EXTT18=
EXTT19=
EXTT20=
EXTT21=
PLAYORDER=
